<?xml version="1.0" encoding="UTF-8"?>
<svg id="Layer_1" xmlns="http://www.w3.org/2000/svg" version="1.1" viewBox="0 0 281.96 101.78">
  <!-- Generator: Adobe Illustrator 30.0.0, SVG Export Plug-In . SVG Version: 2.1.1 Build 123)  -->
  <defs>
    <style>
      .st0 {
        fill: #fff;
      }
    </style>
  </defs>
  <g>
    <path class="st0" d="M13.26,52.41c-2.91.76-4.04,1.02-5.29,1.02-2.26,0-4.1-.54-5.32-1.57-.2-.17-.37-.37-.5-.6-.45-.79-.28-1.87.41-2.61.07-.07.14-.15.17-.19,2.31-.69,5.09-1.19,7.84-1.4h.08s.54-2.52.54-2.52l-.16.02c-1.86.22-3.57.51-5.06.87-2.3-.42-4-2.31-4.25-4.62.9-1.73,2.8-2.94,4.61-2.94.93,0,1.78.22,3.38.87l.09.04.52-.94-.09-.06c-.59-.38-1.05-.72-1.49-1.05-.58-.44-1.13-.85-1.99-1.32C3.5,35.39,0,37.91,0,41.65c0,1.85,1.12,3.78,2.81,4.85-.16.09-.7.41-.7.41-.34.22-.66.59-.94,1.11-1.02,1.88-.9,4.1.3,5.66.73.94,1.72,1.6,2.86,1.88,1.08.27,2.29.41,3.61.41h.05c1.03-.46,1.9-.86,2.75-1.25.94-.43,1.85-.85,2.91-1.31l.1-.04-.38-.99-.1.03ZM68.91,35.09c-3.32,0-5.43,4.84-5.43,7.37,0,2.07,2.3,3.53,7.47,4.74H18.42c-.07-6-.22-9.25-.5-15.11l-.11-2.43h-2.59v.12c.74,8.21,1.03,13.47,1.27,19.78v.11h56.95l.02-.09c.11-.54.44-4.11.44-4.99,0-5.94-1.86-9.5-4.97-9.5M71.95,45.21c-3.16-.65-4.7-1.3-6.73-2.78.23-2.66,1.81-4.99,3.38-4.99,1.97,0,3.34,3.11,3.34,7.56v.2ZM70.8,31.56l-1.98-1.9-2.1,2.18,2.15,1.94,1.93-2.22ZM155.74,33.37l-1.98-1.9-2.1,2.18,2.15,1.94,1.93-2.22ZM131.05,33.41l-1.98-1.94-2.1,2.18,2.15,1.94,1.93-2.18ZM126.53,33.37l-1.98-1.9-2.1,2.18,2.15,1.94,1.93-2.22ZM139.12,37.28l-2.41,1.37.05.1c1.67,3.26,2.69,5.91,3.3,8.54-.92,2.94-2.88,5.27-5.14,6.08-1.01.45-2.6.75-4.25.79h-.11s-.05,1.05-.05,1.05l5.62.75c3.46-2.63,5.44-6.06,5.44-9.4,0-2.08-.74-4.9-2.4-9.16l-.05-.12ZM148.39,49.66c-.18-8.25-.33-12.04-.68-19.9v-.11h-2.59v.12c.6,7.65.84,12.14,1.17,18.34l.08,1.54h2.02ZM155.6,37.28l-2.41,1.37.05.1c1.67,3.26,2.69,5.91,3.3,8.54-.92,2.94-2.88,5.27-5.14,6.08-1.01.45-2.6.75-4.25.79h-.1s-.05,1.05-.05,1.05l5.62.75c3.46-2.63,5.44-6.06,5.44-9.4,0-2.08-.74-4.9-2.4-9.16l-.05-.12ZM166.48,36.88c-3.12,0-5.47,4.4-5.47,7.25,0,2.44,2.67,4.06,8.16,4.95-.87,1.99-2.44,3.61-4.21,4.37-.97.43-2.48.67-4.48.71h-.1s-.1,1.05-.1,1.05l5.62.75c3.58-2.66,5.55-6.21,5.55-10,0-5.51-1.95-9.08-4.97-9.08M162.76,44.1c.3-2.6,1.9-4.87,3.42-4.87,1.9,0,3.22,2.84,3.52,7.62-3.52-.51-5.67-1.39-6.94-2.74M102.18,29.76v-.11h-2.59v.12c.55,7.04.79,11.3,1.12,17.42h-11.57c-1.1,0-1.9-.6-2.6-1.95-1.03-1.94-1.69-4.8-2.08-9v-.16s-2.25.97-2.25.97v.09c.61,4.22,1.64,7.7,2.91,9.8.08.13.15.24.24.36-1.3.22-2.55.27-4.02.27-1.75,0-3.29-.16-4.99-.53l-.12-.02-.42,2.35.1.03c1.69.41,3.59.65,5.19.65s3.4-.05,5-.38h.07s.27-1.08.27-1.08c.78.7,1.63,1.06,2.49,1.06l.08.02h13.84s0-.12,0-.12c-.18-8.33-.33-11.87-.68-19.79M132.98,46.93c.01-1.48-2.45-6.64-4.45-9.74-.5.25-1.36.89-1.9,1.32-2.82,2.26-4.78,5.26-4.78,7.32,0,2.32,2.44,4.21,5.43,4.21,1.84,0,3.62-.46,4.93-1.32l.77-1.79ZM127.47,47.66c-1.59,0-3.03-.69-3.84-1.75.74-2.23,2.26-4.3,4.16-5.68,1.33,2.1,2.24,4.01,3.12,6.55-1.06.65-2.46.89-3.43.89M109.4,49.66c-.18-8.25-.33-12.04-.68-19.9v-.11h-2.59v.12c.6,7.65.84,12.14,1.17,18.34l.08,1.54h2.02Z"/>
    <polygon class="st0" points="6.09 66.12 2.12 60.53 0 60.53 .72 61.53 .72 71.9 2.16 71.9 2.16 63.55 5.8 68.66 9.61 63.57 9.61 71.9 11.33 71.9 11.33 60.53 10.36 60.53 6.09 66.12"/>
    <polygon class="st0" points="69.26 65.48 66.67 60.62 66.62 60.53 64.7 60.53 68.17 67.11 68.17 71.9 69.89 71.9 69.89 67.23 73.62 60.53 72 60.53 69.26 65.48"/>
    <path class="st0" d="M61.43,66.38c.27-.18.52-.4.74-.66.23-.26.43-.58.59-.93.16-.35.24-.76.24-1.21,0-.54-.1-1.02-.31-1.42-.21-.4-.49-.74-.85-1-.36-.26-.79-.47-1.28-.6-.48-.13-1.03-.2-1.6-.2-.71,0-1.31.04-1.77.11-.42.06-.84.14-1.25.22l-.14.03v11.19h1.72v-4.61l1.65.02,3.3,4.6h2.15l-3.89-5.13c.21-.08.45-.21.7-.39M61.13,64.57c-.1.24-.22.46-.38.66-.15.19-.31.36-.48.49-.14.11-.29.22-.51.32h-2.24v-4.4h.97c.94,0,1.65.17,2.1.49.45.33.68.86.68,1.6,0,.3-.05.58-.15.83"/>
    <rect class="st0" x="14.93" y="60.53" width="1.72" height="11.37"/>
    <rect class="st0" x="32.7" y="60.53" width="1.72" height="11.37"/>
    <polygon class="st0" points="27.64 68.34 21.4 60.53 19.25 60.53 20.39 61.96 20.39 71.9 21.83 71.9 21.83 63.78 28.3 71.9 29.1 71.9 29.1 60.53 27.64 60.53 27.64 68.34"/>
    <polygon class="st0" points="45.42 61.93 48.8 61.93 48.8 71.9 50.52 71.9 50.52 61.93 53.61 61.93 54.15 60.53 45.42 60.53 45.42 61.93"/>
    <path class="st0" d="M43.36,67.12h0c-.2-.23-.42-.44-.66-.61-.23-.18-.46-.33-.67-.46l-1.04-.66c-.22-.13-.44-.26-.64-.39-.2-.13-.38-.27-.54-.42-.16-.16-.29-.32-.38-.49-.09-.17-.14-.38-.14-.61,0-.28.06-.53.17-.74.12-.22.28-.4.47-.54.2-.14.42-.25.68-.32.25-.07.52-.11.8-.11.53,0,1,.11,1.4.33.28.15.54.33.77.53l.28.25v-1.8l-.08-.05c-.09-.06-.21-.12-.35-.18-.18-.08-.38-.16-.6-.23-.22-.07-.45-.13-.7-.18-.83-.16-1.61-.06-2.27.16-.47.15-.87.38-1.21.66-.34.29-.6.64-.78,1.05-.18.4-.28.86-.28,1.36,0,.56.17,1.08.5,1.55.33.48.87.95,1.61,1.41l1.48.89c.16.1.33.22.5.37.16.14.3.31.42.5.12.18.17.4.17.65s-.06.49-.17.69c-.11.21-.26.38-.45.53-.19.15-.4.26-.64.34-.24.08-.49.12-.75.12-.61,0-1.15-.1-1.6-.31-.35-.16-.68-.35-1-.57l-.31-.22.25,1.97.1.04c.37.14.78.25,1.2.35.46.1.95.15,1.47.15s1.01-.08,1.45-.23c.45-.15.84-.38,1.16-.66.32-.28.58-.63.76-1.03.18-.4.27-.85.27-1.33,0-.35-.07-.68-.19-.98-.13-.29-.3-.56-.5-.79"/>
    <path class="st0" d="M161.28,67.12c-.2-.23-.42-.43-.66-.61-.23-.17-.46-.33-.67-.46l-1.04-.66c-.22-.13-.44-.26-.64-.39-.2-.13-.38-.27-.54-.42-.16-.15-.29-.32-.38-.49-.09-.18-.14-.38-.14-.61,0-.28.06-.53.18-.75.12-.22.28-.4.47-.53.2-.14.43-.25.68-.32.25-.07.52-.11.8-.11.53,0,1,.11,1.4.33.28.15.54.33.77.53l.28.25v-1.8l-.08-.05c-.09-.06-.21-.12-.35-.18-.18-.08-.38-.16-.6-.23-.22-.07-.45-.13-.7-.18-.83-.16-1.61-.06-2.27.16-.46.15-.87.38-1.21.66-.34.29-.6.64-.78,1.05-.18.41-.28.86-.28,1.36,0,.56.17,1.08.5,1.56.33.48.87.95,1.61,1.41l1.48.89c.17.1.34.22.5.37.16.15.31.31.42.5.12.19.17.4.17.65s-.06.49-.17.69c-.11.2-.26.38-.45.53-.19.15-.4.26-.64.34-.24.08-.49.12-.75.12-.61,0-1.15-.1-1.6-.31-.35-.16-.68-.35-1-.57l-.31-.22.25,1.97.1.04c.38.14.78.25,1.2.35.46.1.95.15,1.47.15s1.01-.08,1.45-.23c.45-.15.84-.37,1.16-.66.32-.28.58-.63.76-1.03.18-.4.27-.85.27-1.33,0-.36-.07-.69-.19-.98-.13-.3-.3-.56-.5-.79"/>
    <polygon class="st0" points="135.97 66.79 139.16 66.79 139.69 65.46 135.97 65.46 135.97 61.86 139.91 61.86 140.45 60.53 134.25 60.53 134.25 71.9 140.05 71.9 140.77 70.52 135.97 70.52 135.97 66.79"/>
    <polygon class="st0" points="125.75 71.9 127.47 71.9 127.47 67.04 130.75 67.04 131.29 65.71 127.47 65.71 127.47 61.86 131.51 61.86 132.05 60.53 125.75 60.53 125.75 71.9"/>
    <path class="st0" d="M88.01,61.99c-.49-.52-1.09-.93-1.77-1.22-.68-.29-1.44-.43-2.25-.43s-1.57.15-2.25.43c-.68.29-1.28.7-1.77,1.22-.49.52-.89,1.15-1.16,1.87-.28.72-.42,1.51-.42,2.37s.14,1.67.42,2.39c.27.72.67,1.34,1.16,1.86.49.52,1.09.93,1.77,1.21.68.29,1.44.43,2.25.43s1.57-.15,2.25-.43c.68-.29,1.28-.7,1.77-1.22.49-.52.88-1.15,1.16-1.87.28-.72.42-1.52.42-2.37s-.14-1.66-.42-2.37c-.28-.72-.67-1.35-1.16-1.87M87.76,66.23c0,.65-.09,1.26-.26,1.81-.17.54-.41,1.02-.73,1.41-.32.39-.71.7-1.18.92-.47.22-1.01.34-1.6.34s-1.14-.11-1.6-.34c-.47-.22-.87-.53-1.19-.92-.32-.39-.57-.86-.73-1.41-.16-.54-.25-1.15-.25-1.81s.09-1.25.26-1.8c.17-.55.41-1.03.73-1.42.32-.39.72-.7,1.18-.92.47-.22,1.01-.34,1.6-.34s1.14.11,1.6.34c.47.22.86.53,1.18.92.32.39.56.87.73,1.42.17.55.26,1.16.26,1.8"/>
    <polygon class="st0" points="166.66 70.52 166.66 66.79 169.85 66.79 170.37 65.46 166.66 65.46 166.66 61.86 170.59 61.86 171.13 60.53 164.93 60.53 164.93 71.9 170.73 71.9 171.45 70.52 166.66 70.52"/>
    <polygon class="st0" points="150.86 68.34 144.62 60.53 142.47 60.53 143.62 61.96 143.62 71.9 145.06 71.9 145.06 63.78 151.52 71.9 152.32 71.9 152.32 60.53 150.86 60.53 150.86 68.34"/>
    <polygon class="st0" points="118.26 66.79 121.45 66.79 121.97 65.46 118.26 65.46 118.26 61.86 122.19 61.86 122.73 60.53 116.53 60.53 116.53 71.9 122.34 71.9 123.05 70.52 118.26 70.52 118.26 66.79"/>
    <polygon class="st0" points="92.12 71.9 93.85 71.9 93.85 67.04 97.13 67.04 97.67 65.71 93.85 65.71 93.85 61.86 97.89 61.86 98.43 60.53 92.12 60.53 92.12 71.9"/>
    <path class="st0" d="M112.45,61.95c-.5-.51-1.12-.91-1.84-1.19-.72-.28-1.55-.42-2.45-.42-.73,0-1.37.04-1.91.11-.49.06-.95.14-1.38.22l-.14.03v10.96l.13.03c.39.1.86.2,1.39.29.58.1,1.22.14,1.89.14.88,0,1.7-.14,2.42-.43.72-.28,1.35-.69,1.85-1.2.51-.52.9-1.14,1.18-1.85.28-.71.42-1.51.42-2.38s-.14-1.73-.4-2.45c-.26-.72-.65-1.35-1.15-1.86M112.17,66.29c0,.58-.09,1.14-.27,1.68-.18.54-.45,1.03-.78,1.45-.34.42-.76.76-1.26,1.01-.74.37-1.69.47-2.67.29-.31-.06-.56-.11-.74-.16v-8.91h1.27c.71,0,1.35.12,1.9.34.55.23,1.02.55,1.39.95.37.4.66.89.86,1.46.2.57.3,1.2.3,1.88"/>
  </g>
  <g>
    <path class="st0" d="M232.71,88.42c.06.06.12.13.18.19l.27.28c.31,0,.62.01.94.01s.63,0,.94-.01l.27-.28c.06-.06.12-.13.18-.19-.46.02-.92.03-1.39.03s-.93,0-1.39-.03"/>
    <path class="st0" d="M232.45,69.92c-.98-.09-1.95-.26-2.92-.53l.14.52c.92.24,1.85.39,2.78.48v-.46Z"/>
    <path class="st0" d="M231.35,83.71c-4.84-.42-9.37-1.95-13.33-4.33l-.15.45c3.34,1.99,7.08,3.39,11.07,4.05,1.04-.11,2.42-.16,2.42-.16"/>
    <path class="st0" d="M223.06,76.83c-1.13-.52-2.22-1.11-3.26-1.77l-.2.42c1.19.75,2.44,1.42,3.74,1.98-.11-.23-.18-.38-.28-.63"/>
    <polyline class="st0" points="210.95 80.57 210.95 80.57 210.95 80.57"/>
    <path class="st0" d="M210.95,80.57c4.76,3.94,10.53,6.69,16.87,7.79-.07-.16-.14-.33-.18-.5-5.17-.94-9.96-3-14.11-5.9h0c-.82-.38-2.58-1.39-2.59-1.39"/>
    <path class="st0" d="M223.24,71.74c-.44-.25-.86-.51-1.28-.78l-.23.4c.43.28.87.55,1.32.81l.19-.42Z"/>
    <path class="st0" d="M225.45,73.34c2.18.91,4.54,1.49,7,1.66v-.46c-2.62-.19-5.12-.85-7.41-1.88.12.24.26.47.41.68"/>
    <path class="st0" d="M235.75,69.92v.46c.9-.08,1.8-.23,2.68-.45l.13-.51c-.93.25-1.87.41-2.81.5"/>
    <path class="st0" d="M239.27,83.87c3.94-.65,7.64-2.02,10.95-3.98l-.15-.45c-3.93,2.34-8.43,3.85-13.22,4.27,0,0,1.39.05,2.42.16"/>
    <path class="st0" d="M245.13,76.83c-.1.25-.17.4-.28.63,1.26-.55,2.48-1.19,3.64-1.91l-.2-.42c-1.01.64-2.06,1.21-3.16,1.71"/>
    <path class="st0" d="M254.66,81.96h0c-4.15,2.91-8.94,4.96-14.11,5.9-.04.17-.11.34-.18.5,6.33-1.11,12.11-3.86,16.87-7.79,0,0-1.76,1.01-2.59,1.39"/>
    <path class="st0" d="M257.25,80.57h0,0Z"/>
    <path class="st0" d="M245.15,72.17c.42-.23.83-.48,1.22-.74l-.23-.4c-.39.25-.78.49-1.18.72l.19.42Z"/>
    <path class="st0" d="M235.75,75.01c2.46-.18,4.82-.75,7-1.66.1-.15.2-.29.28-.45.04-.08.09-.15.13-.23-2.29,1.03-4.79,1.69-7.41,1.88v.46Z"/>
    <path class="st0" d="M211.76,17.37c.79-1.47,1.43-2.88,1.89-4.27-1.51,1.31-2.65,2.77-3.4,4.27-.75,1.5-1.08,2.97-1.1,4.34.94-1.44,1.82-2.88,2.61-4.34"/>
    <path class="st0" d="M215.37,15.67c.91-1.3,1.68-2.57,2.26-3.83-1.59,1.1-2.83,2.36-3.71,3.7-.88,1.34-1.36,2.68-1.53,3.96,1.06-1.26,2.06-2.53,2.98-3.83"/>
    <path class="st0" d="M219.05,14.36c1.01-1.14,1.88-2.26,2.57-3.39-1.64.9-2.96,1.97-3.94,3.15-.99,1.17-1.59,2.38-1.89,3.56,1.15-1.08,2.25-2.18,3.27-3.32"/>
    <path class="st0" d="M229.44,101.78c2.15-2.39,3.85-4.82,4.66-7.3.81,2.48,2.51,4.91,4.66,7.3v-3.43s3.49,0,3.49,0c-2.47-1.18-4.36-2.54-5.78-4.06h.5c.39,0,.72-.24.85-.59,1.81,1.13,3.94,2.08,6.37,2.75,3.9,1.07,8.33,1.31,12.79.5-3.04-.95-6.4-1.75-10.14-2.61-2.86-.66-5.83-1.33-8.96-2.11v-.17c2.27-.11,4.49-.41,6.65-.89,2.29,1.4,5.16,2.42,8.49,2.76,3.65.37,7.65-.12,11.53-1.6-2.95-.42-6.15-.64-9.65-.84-2.97-.17-6.03-.33-9.25-.59,2.16-.55,4.26-1.27,6.26-2.17,2.37,1.02,5.22,1.57,8.4,1.34,3.37-.24,6.92-1.34,10.26-3.36-.38.13-.77.25-1.15.37.39-.12.77-.24,1.15-.37-2.81.06-5.8.36-9.03.73-2.92.33-5.89.71-9.01,1.01,1.94-.91,3.8-1.99,5.55-3.23,2.4.63,5.16.71,8.13-.02,3.06-.76,6.17-2.36,8.97-4.79-2.63.48-5.39,1.23-8.32,2.09-2.77.81-5.57,1.68-8.49,2.51,1.7-1.22,3.3-2.6,4.78-4.11,2.35.24,4.96-.11,7.65-1.28,2.74-1.19,5.41-3.18,7.7-5.91-2.43.85-4.92,1.97-7.54,3.24-2.53,1.22-5.05,2.51-7.65,3.79,1.41-1.46,2.71-3.05,3.89-4.76,2.25-.14,4.64-.87,7-2.38,2.41-1.54,4.65-3.83,6.46-6.74-2.2,1.15-4.41,2.58-6.71,4.18-2.21,1.53-4.39,3.14-6.62,4.76,1.09-1.61,2.07-3.33,2.93-5.15,2.09-.47,4.23-1.52,6.26-3.29,2.08-1.81,3.9-4.3,5.25-7.32-1.95,1.4-3.88,3.07-5.85,4.92-1.87,1.75-3.69,3.58-5.54,5.43.8-1.75,1.47-3.52,2.02-5.31,1.9-.76,3.78-2.05,5.45-3.99,1.74-2.01,3.17-4.62,4.1-7.67-1.7,1.59-3.33,3.44-4.98,5.47-1.53,1.89-3,3.84-4.47,5.83.51-1.75.91-3.51,1.18-5.28,1.69-.99,3.28-2.46,4.62-4.5,1.42-2.15,2.47-4.81,3.01-7.82-1.44,1.73-2.79,3.69-4.12,5.85-1.2,1.94-2.33,3.94-3.44,5.98.24-1.69.38-3.38.41-5.07,1.47-1.16,2.79-2.76,3.82-4.85,1.1-2.22,1.8-4.88,1.98-7.8-1.18,1.82-2.25,3.85-3.27,6.07-.9,1.96-1.73,3.97-2.53,6.01,0-1.6-.07-3.2-.25-4.78,1.26-1.29,2.33-2.98,3.08-5.07.8-2.24,1.18-4.85,1.03-7.63-.93,1.86-1.72,3.92-2.45,6.15-.64,1.97-1.2,3.97-1.73,6.01-.19-1.51-.46-3.01-.82-4.48,1.06-1.39,1.9-3.12,2.38-5.21.52-2.22.59-4.73.16-7.34-.69,1.87-1.22,3.91-1.67,6.11-.4,1.96-.71,3.95-.99,5.98-.36-1.42-.8-2.82-1.31-4.19.87-1.46,1.49-3.21,1.73-5.27.25-2.16.06-4.53-.64-6.96-.45,1.84-.74,3.84-.93,5.97-.17,1.94-.25,3.91-.29,5.9-.51-1.33-1.09-2.63-1.74-3.9.68-1.49,1.09-3.25,1.1-5.24,0-2.07-.44-4.28-1.36-6.49-.24,1.79-.3,3.7-.25,5.74.05,1.9.19,3.83.39,5.77-.65-1.24-1.36-2.44-2.13-3.6.5-1.5.71-3.23.49-5.14-.22-1.95-.87-3.99-1.99-5.98-.04,1.71.11,3.52.38,5.44.26,1.84.62,3.69,1.03,5.55-.77-1.14-1.6-2.24-2.49-3.29.32-1.49.34-3.15-.08-4.95-.42-1.81-1.26-3.66-2.54-5.42.15,1.62.48,3.31.95,5.08.46,1.75,1.02,3.49,1.63,5.24-.87-1.03-1.81-2.02-2.79-2.96.15-1.44-.02-3.02-.62-4.69-.6-1.66-1.6-3.32-3.01-4.85.31,1.5.81,3.06,1.45,4.69.64,1.63,1.38,3.23,2.17,4.85-3.93-3.73-8.74-6.67-14.33-8.47-.78-.24-1.19-.37-1.19-.37l-.02.07c.5.17,2.57.84,4.43,1.71,15.05,6.83,24.42,23.03,21.85,41.34-2.52,17.61-15.97,31.32-35.12,32.76-.1-.14-.23-.26-.4-.32l2.24-2.57c.65-.74.72-1.82.19-2.64l-.95-1.47h-9.4l-.95,1.47c-.53.82-.46,1.9.19,2.64l2.24,2.57c-.16.07-.3.18-.4.32-19.15-1.45-32.6-15.15-35.12-32.76-2.57-18.31,6.81-34.51,21.85-41.34,1.86-.87,3.92-1.54,4.43-1.71l-.02-.07s-.41.13-1.19.37c-5.59,1.8-10.4,4.74-14.33,8.47.79-1.61,1.53-3.22,2.17-4.85.64-1.63,1.14-3.18,1.45-4.69-1.41,1.53-2.41,3.19-3.01,4.85-.6,1.66-.76,3.25-.62,4.69-.99.94-1.92,1.92-2.79,2.96.61-1.75,1.17-3.5,1.63-5.24.47-1.78.8-3.47.95-5.08-1.28,1.76-2.12,3.61-2.54,5.42-.42,1.8-.4,3.46-.08,4.95-.89,1.05-1.72,2.15-2.49,3.29.41-1.86.77-3.71,1.03-5.55.27-1.91.42-3.73.38-5.44-1.11,1.99-1.77,4.03-1.99,5.98-.21,1.91,0,3.63.49,5.14-.78,1.16-1.49,2.36-2.13,3.6.19-1.94.34-3.86.39-5.77.05-2.04,0-3.95-.25-5.74-.92,2.21-1.36,4.42-1.36,6.49,0,1.99.41,3.75,1.1,5.24-.65,1.27-1.23,2.57-1.74,3.9-.04-1.99-.12-3.96-.29-5.9-.19-2.13-.48-4.13-.93-5.97-.7,2.42-.89,4.79-.64,6.96.24,2.05.86,3.81,1.73,5.27-.51,1.37-.95,2.77-1.31,4.19-.27-2.02-.59-4.02-.99-5.98-.45-2.2-.98-4.24-1.67-6.11-.44,2.62-.36,5.12.16,7.34.49,2.09,1.32,3.82,2.38,5.21-.35,1.47-.63,2.97-.82,4.48-.53-2.04-1.09-4.04-1.73-6.01-.73-2.23-1.52-4.29-2.45-6.15-.14,2.79.23,5.39,1.03,7.63.75,2.1,1.82,3.78,3.08,5.07-.18,1.58-.26,3.18-.25,4.78-.8-2.04-1.63-4.05-2.53-6.01-1.02-2.21-2.09-4.25-3.27-6.07.18,2.92.88,5.58,1.98,7.8,1.03,2.08,2.36,3.68,3.82,4.85.03,1.68.17,3.38.41,5.07-1.11-2.03-2.24-4.03-3.44-5.98-1.33-2.15-2.68-4.12-4.12-5.85.54,3.01,1.59,5.68,3.01,7.82,1.34,2.04,2.94,3.51,4.62,4.5.28,1.77.67,3.53,1.18,5.28-1.47-1.98-2.93-3.94-4.46-5.83-1.65-2.03-3.29-3.88-4.98-5.47.93,3.05,2.36,5.66,4.1,7.67,1.68,1.94,3.55,3.23,5.45,3.99.54,1.79,1.21,3.56,2.02,5.31-1.84-1.85-3.67-3.68-5.54-5.43-1.97-1.85-3.9-3.52-5.85-4.92,1.35,3.02,3.18,5.51,5.25,7.32,2.02,1.77,4.16,2.81,6.26,3.29.86,1.82,1.84,3.54,2.93,5.15-2.23-1.62-4.41-3.23-6.62-4.76-2.3-1.6-4.51-3.02-6.71-4.18,1.81,2.92,4.05,5.2,6.46,6.74,2.36,1.51,4.76,2.24,7,2.38,1.18,1.71,2.48,3.3,3.89,4.76-2.61-1.28-5.13-2.57-7.65-3.79-2.62-1.27-5.11-2.39-7.54-3.24,2.29,2.73,4.96,4.72,7.7,5.91,2.69,1.17,5.3,1.52,7.65,1.28,1.48,1.51,3.08,2.88,4.78,4.11-2.92-.83-5.72-1.7-8.49-2.51-2.93-.86-5.69-1.61-8.32-2.09,2.8,2.43,5.91,4.03,8.97,4.79,2.97.74,5.74.66,8.13.02,1.75,1.23,3.61,2.31,5.55,3.23-3.12-.3-6.1-.68-9.01-1.01-3.23-.37-6.22-.67-9.03-.73,3.34,2.02,6.89,3.13,10.26,3.36,3.19.23,6.03-.32,8.4-1.34,2.01.9,4.1,1.63,6.26,2.17-3.22.25-6.28.41-9.25.59-3.5.2-6.7.42-9.65.84,3.89,1.48,7.89,1.98,11.53,1.6,3.34-.34,6.21-1.36,8.49-2.76,2.16.48,4.38.78,6.65.89v.17c-3.13.77-6.1,1.45-8.96,2.11-3.74.86-7.1,1.66-10.14,2.61,4.46.81,8.89.56,12.79-.5,2.43-.67,4.57-1.62,6.37-2.75.13.34.46.59.85.59h.5c-1.42,1.52-3.31,2.89-5.78,4.06h3.5v3.43ZM237.32,87.24c-.43.64-.92,1.24-1.45,1.8l-1.76,1.83-1.76-1.83c-.54-.56-1.02-1.16-1.45-1.8h6.43Z"/>
    <path class="st0" d="M259.05,21.71c-.02-1.37-.35-2.83-1.1-4.34-.75-1.5-1.89-2.96-3.4-4.27.46,1.38,1.1,2.8,1.89,4.27.79,1.47,1.67,2.91,2.61,4.34"/>
    <path class="st0" d="M255.81,19.5c-.17-1.28-.65-2.62-1.53-3.96-.88-1.34-2.12-2.6-3.71-3.7.58,1.26,1.35,2.53,2.26,3.83.91,1.3,1.92,2.57,2.98,3.83"/>
    <path class="st0" d="M249.15,14.36c1.01,1.14,2.12,2.24,3.27,3.32-.19-.29-.38-.58-.58-.87.2.29.4.58.58.87-.3-1.18-.9-2.39-1.89-3.56-.98-1.17-2.31-2.25-3.94-3.15.3.26.59.53.88.8-.29-.27-.58-.53-.88-.8.68,1.13,1.55,2.25,2.57,3.39"/>
    <path class="st0" d="M234.63,47.88s.01-.01.02,0c1.25.79.9,2.99.64,3.62,0,.01.01.02.02.01,1.56-1.84.8-3.88.48-4.39,0-.01,0-.02.02-.01,1.39,1.13,1.33,2.63,1.25,3.48,0,.01.02.02.02,0,.57-1.11.74-3-1-4.53,0,0,0-.03.01-.02,1.55.37,2.18,1.84,2.19,2.94,0,.02,0,.04,0,.06,0,.01.02.01.02,0,.22-.82.17-1.49-.03-2.02-.45-1.21-1.66-1.74-2.26-1.81-.01,0-.01-.02,0-.02,1.15-.11,1.85.25,2.25.6.25.22.38.43.44.53,0,.01.02,0,.02,0-.04-.44-.21-.81-.46-1.1-.68-.82-1.97-1.04-2.8-.69-.01,0-.02,0-.01-.02.54-.77,1.61-.85,2.18-.58.01,0,.02,0,.01-.02-.85-.98-2.25-1-3,.13,0,0-.02,0-.02,0-.08-.15-.16-.31-.23-.48-.16-.37-.23-.78-.3-1.2,0-.02-.03-.02-.03,0-.07.41-.14.83-.3,1.2-.07.17-.15.33-.23.48,0,0-.01,0-.02,0-.75-1.13-2.15-1.11-3-.13,0,.01,0,.02.01.02.57-.27,1.64-.19,2.18.58,0,.01,0,.02-.01.02-.83-.35-2.12-.12-2.8.69-.24.29-.41.66-.46,1.1,0,.01.02.02.02,0,.05-.1.19-.32.43-.53.4-.35,1.1-.71,2.25-.6.01,0,.02.02,0,.02-.59.07-1.81.6-2.26,1.81-.2.53-.25,1.2-.03,2.02,0,.01.02.01.02,0,0-.02,0-.04,0-.06.01-1.1.64-2.57,2.19-2.94.01,0,.02.01.01.02-1.73,1.53-1.56,3.41-1,4.53,0,.01.02,0,.02,0-.07-.84-.14-2.34,1.26-3.48.01,0,.03,0,.02.01-.32.52-1.08,2.55.48,4.39,0,.01.03,0,.02-.01-.26-.63-.61-2.83.64-3.62,0,0,.02,0,.02,0,.12,1.45.27,4.23-.12,8.54-2.02-1.17-5.55-2.98-8.1-2.98-.79,0-1.44.21-1.4.22,3.38.53,7.38,2.88,9.06,3.95-1.09.68-4.56,2.83-4.98,2.83-.21,0-.24-.25-.42-.25-.16,0-.16.12-.16.17,0,.72.98,1.19,1.78.82l4.87-2.82,4.87,2.82c.8.37,1.78-.1,1.78-.82,0-.05,0-.17-.16-.17-.18,0-.21.25-.42.25-.42,0-3.89-2.15-4.98-2.83,1.68-1.07,5.68-3.42,9.06-3.95.04,0-.61-.22-1.4-.22-2.55,0-6.08,1.81-8.1,2.98-.39-4.31-.24-7.1-.12-8.54"/>
    <path class="st0" d="M266.26,69.52c2.69-5.07,4.22-10.86,4.22-16.99,0-2.57-.27-5.08-.78-7.5-.09.16-.26.39-.37.52.45,2.26.68,4.59.68,6.98,0,6.06-1.51,11.77-4.17,16.78h0c-1.69,3.18-3.8,6.03-6.32,8.56l-2.65-3.22c1.35-1.39,2.57-2.9,3.65-4.52l-.28-.41c-1.08,1.64-2.31,3.16-3.67,4.57l-2.66-3.23c1.17-1.25,2.23-2.61,3.15-4.06l-.4-.23c-.89,1.41-1.91,2.72-3.04,3.93l-2.66-3.24c.95-1.07,1.8-2.22,2.53-3.46l-.29-.41c-.73,1.25-1.58,2.43-2.53,3.51l-.44-.54.06-.96-1.88-2.28c.78-1.03,1.45-2.15,2-3.34l-.41-.21c-.52,1.13-1.16,2.19-1.89,3.18l-2.96-3.59c.23-.31.46-.63.66-.96h0c.22-.37.43-.76.61-1.15h0s4.44,2.26,4.44,2.26c-.03-.06,3.96,5.56,3.96,5.56l4.52,2.55,1.31,1.88,3.04,1.55.91-1.79,3.71-7.29.39-.76-3.04-1.55h-.6c.53-2.29.81-4.69.81-7.15,0-1.74-.14-3.44-.41-5.1l-.46.07c.27,1.64.4,3.32.4,5.03,0,2.47-.29,4.87-.83,7.17l-1.22.03-2.76-1.26c.43-1.91.66-3.9.66-5.94,0-.77-.03-1.52-.09-2.27h0c-.15.02-.3.04-.46.06.06.73.09,1.47.09,2.22,0,1.97-.21,3.89-.62,5.74l-1.54-.7-2.57.03c.38-1.64.58-3.36.57-5.12-.08,0-.29,0-.46.01,0,1.76-.2,3.47-.59,5.11l-3.67.04-.55-.28c.28-1,.47-2.02.58-3.08-.19,0-.26,0-.46,0h0c-.1.98-.28,1.94-.53,2.87l-3.81-1.95c.08-.32.14-.64.19-.97,1.4-.47,3.02-.58,4.5-.55,2.35.05,3.74-.59,3.97-.91h0s0-.01.01-.02c-1.07.16-6.65-1.11-8.3-.63,1.6-.8,3.43-.54,7.71-.26,3.44.23,4.55-.86,4.5-1.16,0,0,0,0,0,0-.38.09-2-.02-2.81-.16-4.35-.73-5.66-1.31-6.99-.84,1.63-1.01,4.72-.27,8.62.01,4.32.31,5.8-1.26,5.8-1.7,0-.03,0-.05,0-.05-1.09.42-3.98,0-7.08-.38-2.29-.28-3.88-.69-5.28.01.72-.48,1.55-.8,2.55-.89,1.45-.13,3.67.03,8.01.26,5.88.32,7.4-2.73,7.25-3.2-.08.06-.21.12-.3.15-3.29-13.49-14.12-24.06-27.75-26.97-.08.15-.16.3-.21.43,13.53,2.84,24.28,13.31,27.52,26.69-1.15.34-2.56.58-4.13.59-.71-2.76-1.77-5.38-3.15-7.79-.1.14-.2.27-.3.4,1.29,2.3,2.3,4.78,2.98,7.39-.81-.01-1.66-.05-2.52-.1-.51-.03-1.02-.06-1.52-.1-.11,0-.22-.01-.34-.02-.46-1.48-1.05-2.91-1.75-4.28-.3.2-.36.23-.39.25.65,1.28,1.21,2.61,1.65,4-1.2-.08-2.33-.14-3.35-.13-.38,0-.74.01-1.08.04-.27-.68-.57-1.35-.9-1.99l-.41.21c.3.59.58,1.2.83,1.82-1.56.15-2.84.52-3.99,1.2-.16-.39-.34-.77-.53-1.14l-.41.21c.2.38.38.78.55,1.18-1.57,1.05-2.39,2.2-3.21,3.8h0c-.14-.49-.32-.98-.53-1.45-.08-.18-.17-.36-.25-.53,0,0,0-.01,0-.02,0-.01-.01-.02-.02-.03-.25-.48-.53-.94-.84-1.38l11.61-5.91c2.28-1.16,4.07-2.91,5.26-4.97-.43-.04-.87-.07-1.31-.07-.06,0-.12,0-.18,0-1.95-2.99-4.38-5.63-7.19-7.81l-.28.37c2.7,2.09,5.04,4.62,6.93,7.47-1.46.08-2.94.42-4.35,1.03-.14.06-.29.13-.43.2.14-.07.29-.13.43-.2-1.47-1.96-3.19-3.72-5.13-5.22l-.28.37c1.87,1.46,3.55,3.16,4.98,5.05-.1.05-.21.1-.31.15l-3.46,1.76c-1.1-1.37-2.36-2.61-3.76-3.69l-.28.37c1.34,1.04,2.55,2.22,3.62,3.54l-3.8,1.94c-.46-.52-.96-1-1.47-1.46l-.28.37c.47.41.91.85,1.33,1.31l-4.72,2.4s0,0,0,0c0,0-.01,0-.02-.01l4.01-5.15-.19-1.63,8.57-11.05.49-.63-1.08-.88-1.97,2.53c-.1-.07-.19-.13-.29-.2-4.77-3.21-10.45-5.15-16.57-5.36l.17.47c5.94.24,11.47,2.13,16.11,5.25.1.07.2.14.3.2l-2.55,3.28c-.13-.09-.26-.18-.4-.26-3.65-2.37-7.91-3.88-12.48-4.27,0,.15.02.31.02.46,4.45.38,8.6,1.86,12.16,4.16.14.09.27.18.41.27l-1.89,2.43v.02c-.99-.8-.62-.51-1.52-1.21-.17-.12-.32-.23-.49-.27-.46-.11-.85.22-.99.99-2.34-1.16-4.91-1.93-7.63-2.21v.46c2.69.28,5.24,1.05,7.55,2.22l-.38,2.56-1.1,1.34c-.14-.07-.28-.15-.42-.22-1.36-.68-2.81-1.19-4.34-1.51.12.15.2.33.23.52,1.33.3,2.61.76,3.81,1.35.14.07.28.14.42.22l-1.15,1.4-.79.03-2.21,2.67c-.14-.04-.28-.08-.43-.11v-5.32c0-.33-.19-.63-.48-.78,0,0-1.08-.61-1.08-.61v-8.24c0-1.36-.25-2.72-.73-4l-1.23-3.43-1.23,3.43c-.49,1.28-.73,2.63-.73,4v8.24s-.15.08-1.08.61c-.3.15-.48.45-.48.78v5.32c-.14.03-.28.07-.43.11h0s-2.21-2.68-2.21-2.68l-.79-.03-1.15-1.4c.14-.07.28-.15.42-.22,1.2-.59,2.47-1.05,3.8-1.35.04-.19.12-.37.23-.52-1.53.32-2.98.83-4.34,1.51-.14.07-.28.14-.42.22l-1.1-1.34-.38-2.56c2.32-1.17,4.86-1.94,7.55-2.22v-.46c-2.71.28-5.28,1.05-7.62,2.21,0-.03-.01-.07-.02-.1-.16-.7-.54-.99-.98-.89-.17.04-.32.15-.49.27-.89.71-.55.43-1.51,1.21v-.02s-1.9-2.43-1.9-2.43c.14-.09.27-.18.41-.27,3.56-2.3,7.71-3.78,12.16-4.16,0-.15.01-.31.02-.46-4.57.38-8.82,1.89-12.48,4.27-.13.09-.26.18-.39.26l-2.56-3.28c.1-.07.2-.14.3-.21,4.64-3.12,10.17-5.01,16.11-5.25l.17-.47c-6.12.22-11.8,2.15-16.57,5.36-.1.06-.2.13-.29.2l-1.97-2.53-1.1.87s9.04,11.66,9.07,11.69l-.19,1.63,4,5.15c-.35.24-.68.49-.97.74l-4.48-2.28c.61-.76,1.28-1.47,2.01-2.12l-.28-.37c-.78.69-1.5,1.46-2.15,2.27l-3.76-1.91c1.2-1.63,2.61-3.09,4.21-4.34l-.28-.37c-1.65,1.29-3.11,2.8-4.34,4.5l-.78-.4.1-.19c.13-.25.04-.57-.21-.71l-2.35-1.31c1.44-1.94,3.14-3.69,5.04-5.17l-.28-.37c-1.95,1.53-3.69,3.32-5.16,5.31l-3.65-2.03c1.76-2.48,3.88-4.69,6.27-6.56l-.28-.37c-2.44,1.91-4.6,4.17-6.39,6.7l-2.5-1.39c-.71,1.39-1.32,2.6-2.03,3.99.85.43-.48-.2,9.67,4.48.26.12.57.01.7-.24l.1-.19,9.24,4.68c-.98,1.2-1.73,2.59-2.16,4.08-.82-1.59-1.65-2.75-3.21-3.8.27-.65.58-1.28.93-1.88l-.41-.21c-.34.59-.64,1.21-.91,1.84-1.15-.68-2.44-1.06-3.99-1.2.35-.87.75-1.72,1.2-2.53l-.41-.21c-.48.87-.91,1.77-1.27,2.7-.35-.02-.71-.03-1.08-.04-1.02,0-2.15.05-3.35.13.43-1.35.97-2.66,1.6-3.91l-.42-.19c-.67,1.32-1.23,2.7-1.68,4.13-.61.04-1.23.08-1.86.12-.85.05-1.71.09-2.52.1.55-2.13,1.32-4.16,2.29-6.09l-.42-.19c-.99,1.99-1.78,4.09-2.35,6.29h-.54c-1.03-.01-2.63-.3-3.59-.59,3.24-13.38,13.99-23.85,27.52-26.69-.06-.13-.13-.28-.21-.43-13.63,2.91-24.46,13.48-27.75,26.97-.09-.04-.22-.09-.3-.15-.16.47,1.37,3.52,7.25,3.2,4.33-.23,6.56-.39,8.01-.26.99.09,1.82.41,2.55.89-1.4-.71-2.99-.29-5.28-.01-3.1.38-5.99.8-7.08.38-.14.33,1.26,2.07,5.79,1.75,3.9-.28,6.98-1.02,8.62-.01-1.33-.48-2.64.1-6.99.84-.81.14-2.43.25-2.81.16,0,0,0,0,0,0-.06.3,1.06,1.39,4.5,1.16,2.89-.19,6.66-.61,7.71.26-1.65-.48-7.22.79-8.3.63,0,0,0,0,.01.01,0,0,0-.01-.01-.01,0,0,0,.01.01.01h0c.23.32,1.62.96,3.97.91,1.06-.02,2.77,0,4.33.5l-3.72,1.89c-.12-.59-.21-1.18-.27-1.79-.2,0-.27,0-.46,0,.07.68.17,1.35.31,2l-.84.43-3.2.48c-.33-1.52-.5-3.09-.5-4.7-.15,0-.37,0-.46-.01,0,1.64.17,3.24.5,4.78l-4.11.62c-.35-1.73-.54-3.52-.54-5.35,0-.75.03-1.49.09-2.22-.22-.02-.46-.06-.46-.06-.06.75-.09,1.51-.09,2.27,0,1.86.19,3.67.54,5.42l-.4.06c-1.23.25-2.44.59-3.62,1.02-.44-2.1-.68-4.27-.68-6.5,0-1.71.14-3.39.41-5.03l-.46-.07c-.27,1.66-.41,3.37-.41,5.1,0,2.28.24,4.51.7,6.66-1.56.59-2.54,1.11-3.53,1.62,1.55,3.04,1.21,2.37,1.69,3.31l-.93.47c-1.35-3.77-2.08-7.83-2.08-12.05,0-2.39.24-4.72.68-6.98-.16-.19-.27-.35-.37-.52h0c-.51,2.42-.78,4.93-.78,7.5,0,4.3.75,8.43,2.13,12.26.46,1.29,1,2.55,1.6,3.77l1.6-.8,1.69,3.31.83-.42c2.14-1.09,4.12-2.46,5.89-4.07l6.2-6.25,4.52-2.3h0c.26.47.55.92.87,1.35l-3.25,3.94.3-.36c-.58-.77-1.1-1.6-1.54-2.46l-.41.21c.47.92,1.03,1.8,1.65,2.62l-1.88,2.28.06.96-.44.53c-.93-1.06-1.78-2.21-2.49-3.44l-.34.34c.73,1.24,1.59,2.39,2.53,3.46l-5.62,6.83c-1.32-1.37-2.52-2.85-3.58-4.43-.13.08-.26.16-.39.24h0c1.08,1.63,2.32,3.15,3.68,4.55l-2.65,3.22c-2.64-2.64-4.83-5.65-6.56-9.01l-.41.2c1.73,3.38,3.98,6.45,6.64,9.12.03.03.06.06.09.09-.03.18.05.37.22.48l7.64,3.78c.08.05.17.07.25.07.18,0,.36-.11.44-.29.01-.03.1-.35.1-.36,1.9-7.47,6.66-14.41,6.66-14.41.1-.15.27-.24.47-.24.26,0,.47.17.54.4,0,0,1.3,3.96,1.3,3.96,0,.01,0,.02,0,.03.19.68.72.78,1.3.38.04-.03,2.1-1.47,2.14-1.5.27-.27.19-.04-2.06-7.53.61.32,1.24.6,1.9.83,1.11.39,2.29.64,3.5.74v11.03c0,.89-.24,1.59-.71,2.08-1.5,1.54-5.11.52-6.36-2.17l1.18-.22c-1.33-.83-2.62-2.56-2.81-4.34-.22.32-.4.64-.56.96-.07.14-.13.28-.19.42-.63,1.57-.55,3.15.23,4.8l.54-.76c1.48,4.31,7.7,4.1,9.95,7.21h0c2.24-3.1,8.47-2.89,9.95-7.21l.54.76c1.02-2.13.85-4.16-.51-6.19-.05.5-.19.98-.39,1.45-.1.23-.21.45-.33.66-.54.94-1.31,1.74-2.09,2.22l1.18.22c-.85,1.84-2.8,2.89-4.43,2.89-.72,0-1.43-.21-1.93-.72-.48-.49-.72-1.19-.71-2.08v-11.03c1.22-.1,2.39-.36,3.5-.74.66-.23,1.29-.51,1.9-.83l-2.15,7.16h0c-.05.13,0,.33.17.43h0s2.06,1.44,2.06,1.44c.22.15.44.24.63.24.17,0,.31-.06.43-.18.22-.22,1.53-4.42,1.54-4.42.07-.23.29-.4.54-.4.19,0,.36.1.46.24,0,0,4.75,6.94,6.66,14.41,0,0,.07.25.07.25,0,.04.02.07.03.11.11.27.44.38.69.22l7.64-3.78c.17-.11.24-.29.22-.47,2.57-2.57,4.77-5.52,6.48-8.75h0ZM223.51,64.71h0s0,0,0,0ZM234.1,64.39c-6.5,0-11.77-5.27-11.77-11.77s5.27-11.77,11.77-11.77,11.77,5.27,11.77,11.77-5.27,11.77-11.77,11.77"/>
    <path class="st0" d="M241.77,7c.13.38.22.9.19,1.37-1.96-3.4-5.03-2.31-6.67-3.67.13-.21.2-.45.2-.72h0c0-.63-.41-1.15-.98-1.33l.59-.59s-.73-1.25-1.01-2.05h0c-.29.8-1.01,2.05-1.01,2.05l.59.59h0c-.56.18-.97.71-.97,1.33,0,.26.07.51.2.72-1.63,1.37-4.71.28-6.66,3.67-.03-.47.06-.99.19-1.37-2.51.12-4.51,2.18-4.51,4.72,0,.79.2,1.53.54,2.18.06.11.12.22.19.33.09,0,.17-.01.26-.01.85,0,1.64.22,2.32.61h0c1.21.7,2.21,2.16,2.37,3.58,2.13-.83,3.63-1.32,6.49-1.32s4.37.5,6.5,1.32c.16-1.43,1.16-2.88,2.37-3.58h0s0,0,0,0c.68-.4,1.48-.61,2.33-.61.09,0,.17,0,.26.01.07-.11.13-.21.19-.33.34-.65.54-1.39.54-2.18,0-2.54-2-4.6-4.51-4.72M227.37,14.27c-.45.1-2,.34-3.05-.82h0s0,0,0,0c-.06-.07-.12-.14-.18-.22-.3-.42-.42-.96-.42-1.51,0-1.38.96-2.54,2.25-2.84-.13.27-.24.61-.32.99-.08.38-.13.8-.13,1.22,0,2.01,1.69,3.23,1.98,3.16,0,0-.04.01-.13.03M231.03,13.42c-.6.11-1.18.25-2,.43-.88-.66-1.39-1.69-1.39-2.77,0-3.95,3.96-3.5,5.37-4.19-.39.96-.57,1.94-.57,2.94,0,.56.06,1.11.17,1.63.13.62.33,1.21.59,1.75-.94.03-1.57.1-2.17.2M234.1,17.08h0s0,0,0,0h0ZM239.17,13.85c-.82-.18-1.4-.32-2-.43-.6-.11-1.24-.17-2.17-.2.26-.55.46-1.14.59-1.75.11-.53.17-1.07.17-1.63,0-1-.18-1.98-.57-2.94,1.41.69,5.37.24,5.37,4.19,0,1.08-.51,2.11-1.39,2.77M244.06,13.22c-.06.08-.12.15-.18.22h0s0,0,0,0h0s0,0,0,0h0c-1.05,1.17-2.59.93-3.05.82-.09-.02-.12-.03-.13-.03.29.07,1.98-1.15,1.98-3.16,0-.42-.05-.84-.13-1.22-.08-.38-.2-.72-.32-.99,1.29.31,2.25,1.46,2.25,2.84,0,.55-.12,1.09-.42,1.51"/>
    <path class="st0" d="M214.57,70.69c-1.06-1.14-2.03-2.36-2.88-3.67,0,0-.3.27-.35.31.86,1.33,1.85,2.57,2.92,3.72l.3-.36Z"/>
  </g>
</svg>