<?xml version="1.0" encoding="UTF-8"?>
<svg id="Layer_1" xmlns="http://www.w3.org/2000/svg" version="1.1" viewBox="0 0 100.24 101.78">
  <!-- Generator: Adobe Illustrator 30.0.0, SVG Export Plug-In . SVG Version: 2.1.1 Build 123)  -->
  <defs>
    <style>
      .st0 {
        fill: #fff;
      }
    </style>
  </defs>
  <g>
    <path class="st0" d="M49.13,63.33s.09.09.13.14l.19.2c.22,0,.45,0,.67,0s.45,0,.67,0l.19-.2s.09-.09.13-.14c-.33.01-.66.02-.99.02s-.67,0-1-.02Z"/>
    <path class="st0" d="M48.94,50.08c-.7-.06-1.4-.19-2.09-.38l.1.37c.66.17,1.32.28,1.99.34v-.33Z"/>
    <path class="st0" d="M48.15,59.96c-3.47-.3-6.71-1.4-9.55-3.1l-.11.32c2.39,1.43,5.07,2.43,7.93,2.9.74-.08,1.73-.11,1.73-.11Z"/>
    <path class="st0" d="M39.88,53.77l-.14.3c.85.54,1.75,1.01,2.68,1.42-.08-.16-.13-.27-.2-.45-.81-.37-1.59-.79-2.34-1.27Z"/>
    <path class="st0" d="M45.5,62.94c-3.7-.68-7.13-2.15-10.1-4.23h0c-.59-.27-1.85-.99-1.85-1,3.41,2.82,7.55,4.79,12.08,5.58-.05-.12-.1-.24-.13-.36Z"/>
    <path class="st0" d="M42.34,51.39c-.31-.18-.62-.36-.91-.56l-.17.29c.31.2.62.4.95.58l.14-.3Z"/>
    <path class="st0" d="M43.93,52.54c1.56.65,3.25,1.06,5.01,1.19v-.33c-1.88-.14-3.67-.61-5.31-1.35.09.17.19.34.3.49Z"/>
    <path class="st0" d="M51.3,50.08v.33c.64-.06,1.29-.16,1.92-.32l.1-.37c-.67.18-1.34.3-2.02.36Z"/>
    <path class="st0" d="M53.83,60.08c2.82-.46,5.47-1.45,7.85-2.85l-.11-.32c-2.82,1.68-6.04,2.76-9.47,3.06,0,0,.99.04,1.74.11Z"/>
    <path class="st0" d="M58.03,55.03c-.07.18-.12.29-.2.45.91-.39,1.78-.85,2.61-1.37l-.14-.3c-.72.46-1.48.86-2.26,1.22Z"/>
    <path class="st0" d="M64.85,58.71h0c-2.97,2.08-6.4,3.55-10.1,4.23-.03.12-.08.24-.13.36,4.54-.79,8.67-2.76,12.08-5.58,0,0-1.26.72-1.85.99Z"/>
    <path class="st0" d="M58.04,51.7c.3-.17.59-.35.88-.53l-.17-.29c-.28.18-.56.35-.85.52l.14.3Z"/>
    <path class="st0" d="M51.3,53.73c1.76-.13,3.45-.54,5.01-1.19.07-.1.14-.21.2-.32.03-.06.06-.11.09-.17-1.64.74-3.43,1.21-5.31,1.35v.33Z"/>
    <path class="st0" d="M34.12,12.44c.56-1.05,1.03-2.07,1.35-3.06-1.08.94-1.9,1.98-2.43,3.06-.54,1.08-.78,2.13-.79,3.11.67-1.03,1.31-2.06,1.87-3.11Z"/>
    <path class="st0" d="M36.7,11.23c.65-.93,1.2-1.84,1.62-2.74-1.14.79-2.03,1.69-2.66,2.65-.63.96-.97,1.92-1.1,2.84.76-.9,1.48-1.81,2.13-2.74Z"/>
    <path class="st0" d="M39.34,10.29c.73-.82,1.35-1.62,1.84-2.43-1.17.65-2.12,1.41-2.83,2.25-.71.84-1.14,1.71-1.35,2.55.82-.77,1.61-1.56,2.34-2.38Z"/>
    <path class="st0" d="M80.51,48.26c1.49-1.3,2.79-3.08,3.76-5.25-1.4,1-2.78,2.2-4.19,3.52-1.34,1.26-2.65,2.57-3.97,3.89.57-1.25,1.05-2.52,1.44-3.8,1.36-.54,2.71-1.47,3.91-2.86,1.25-1.44,2.27-3.31,2.94-5.5-1.22,1.14-2.39,2.46-3.57,3.92-1.1,1.35-2.15,2.75-3.2,4.17.37-1.25.65-2.52.85-3.78,1.21-.71,2.35-1.76,3.31-3.22,1.02-1.54,1.77-3.45,2.16-5.6-1.03,1.24-2,2.65-2.95,4.19-.86,1.39-1.67,2.82-2.47,4.28.17-1.21.27-2.42.3-3.63,1.05-.83,2-1.98,2.74-3.47.79-1.59,1.29-3.5,1.42-5.59-.85,1.3-1.61,2.76-2.34,4.35-.65,1.41-1.24,2.84-1.82,4.31,0-1.15-.05-2.29-.18-3.42.9-.93,1.67-2.13,2.21-3.64.57-1.61.84-3.47.74-5.47-.67,1.33-1.23,2.81-1.75,4.41-.46,1.41-.86,2.84-1.24,4.3-.14-1.08-.33-2.16-.59-3.21.76-1,1.36-2.24,1.71-3.73.37-1.59.43-3.39.11-5.26-.49,1.34-.87,2.8-1.19,4.38-.29,1.41-.51,2.83-.71,4.28-.26-1.02-.57-2.02-.94-3,.62-1.04,1.06-2.3,1.24-3.77.18-1.55.04-3.25-.46-4.98-.32,1.32-.53,2.75-.67,4.28-.12,1.39-.18,2.8-.21,4.23-.37-.95-.78-1.89-1.25-2.79.49-1.07.78-2.33.79-3.76,0-1.48-.31-3.07-.97-4.65-.17,1.28-.21,2.65-.18,4.11.04,1.36.14,2.74.28,4.13-.46-.89-.97-1.75-1.53-2.58.36-1.08.51-2.31.35-3.68-.16-1.4-.63-2.86-1.43-4.28-.03,1.23.08,2.52.27,3.9.19,1.32.44,2.64.74,3.98-.55-.82-1.14-1.6-1.78-2.36.23-1.06.24-2.26-.06-3.55-.3-1.3-.9-2.62-1.82-3.89.11,1.16.35,2.37.68,3.64.33,1.25.73,2.5,1.17,3.76-.63-.74-1.29-1.45-2-2.12.11-1.03-.01-2.16-.44-3.36-.43-1.19-1.15-2.38-2.16-3.48.22,1.08.58,2.19,1.04,3.36.46,1.17.99,2.32,1.56,3.47-2.82-2.67-6.26-4.78-10.27-6.06-.56-.17-.85-.26-.85-.26l-.02.05c.36.12,1.84.6,3.17,1.23,10.78,4.89,17.49,16.49,15.65,29.61-1.81,12.62-11.44,22.43-25.16,23.47-.07-.1-.17-.18-.29-.23l1.6-1.84c.46-.53.52-1.3.13-1.89l-.68-1.05h-6.73l-.68,1.05c-.38.59-.33,1.36.13,1.89l1.6,1.84c-.12.05-.22.13-.29.23-13.72-1.04-23.35-10.85-25.16-23.47-1.84-13.12,4.88-24.72,15.65-29.61,1.33-.63,2.81-1.1,3.17-1.23l-.02-.05s-.3.09-.85.26c-4,1.29-7.45,3.39-10.27,6.06.57-1.16,1.1-2.31,1.56-3.47.46-1.16.82-2.28,1.04-3.36-1.01,1.1-1.73,2.28-2.16,3.48-.43,1.19-.55,2.32-.44,3.36-.71.67-1.37,1.38-2,2.12.44-1.26.84-2.5,1.17-3.76.33-1.27.57-2.48.68-3.64-.92,1.26-1.52,2.59-1.82,3.89-.3,1.29-.29,2.48-.06,3.55-.64.75-1.23,1.54-1.78,2.36.29-1.34.55-2.66.74-3.98.19-1.37.3-2.67.27-3.9-.8,1.42-1.27,2.88-1.42,4.28-.15,1.37,0,2.6.35,3.68-.56.83-1.07,1.69-1.53,2.58.14-1.39.24-2.77.28-4.13.04-1.46,0-2.83-.18-4.11-.66,1.58-.97,3.17-.97,4.65,0,1.43.3,2.69.79,3.76-.47.91-.88,1.84-1.25,2.79-.03-1.43-.08-2.84-.21-4.23-.13-1.53-.34-2.96-.67-4.28-.5,1.73-.64,3.43-.46,4.98.17,1.47.61,2.73,1.24,3.77-.37.98-.68,1.98-.94,3-.2-1.45-.42-2.88-.71-4.28-.32-1.57-.7-3.04-1.19-4.38-.31,1.87-.26,3.67.11,5.26.35,1.5.95,2.74,1.71,3.73-.25,1.05-.45,2.13-.59,3.21-.38-1.46-.78-2.9-1.24-4.3-.52-1.6-1.09-3.07-1.75-4.41-.1,2,.17,3.86.74,5.47.54,1.5,1.3,2.71,2.21,3.64-.13,1.13-.19,2.28-.18,3.42-.57-1.46-1.17-2.9-1.81-4.31-.73-1.59-1.5-3.04-2.34-4.35.13,2.09.63,4,1.42,5.59.74,1.49,1.69,2.64,2.74,3.47.02,1.21.12,2.42.3,3.63-.8-1.46-1.61-2.89-2.47-4.28-.95-1.54-1.92-2.95-2.95-4.19.39,2.16,1.14,4.07,2.16,5.6.96,1.46,2.1,2.51,3.31,3.22.2,1.27.48,2.53.85,3.78-1.05-1.42-2.1-2.82-3.2-4.17-1.18-1.46-2.35-2.78-3.57-3.92.67,2.18,1.69,4.05,2.94,5.5,1.2,1.39,2.54,2.32,3.91,2.86.39,1.28.87,2.55,1.44,3.8-1.32-1.32-2.63-2.64-3.97-3.89-1.41-1.32-2.79-2.52-4.19-3.52.97,2.16,2.28,3.95,3.76,5.25,1.45,1.27,2.98,2.01,4.48,2.35.62,1.3,1.32,2.53,2.1,3.69-1.6-1.16-3.16-2.31-4.74-3.41-1.65-1.14-3.23-2.17-4.81-2.99,1.3,2.09,2.9,3.73,4.63,4.83,1.69,1.08,3.41,1.61,5.02,1.71.84,1.23,1.77,2.36,2.78,3.41-1.87-.91-3.67-1.84-5.48-2.72-1.88-.91-3.66-1.71-5.4-2.32,1.64,1.95,3.55,3.38,5.52,4.23,1.93.84,3.79,1.09,5.48.92,1.06,1.08,2.21,2.07,3.42,2.94-2.09-.59-4.1-1.22-6.08-1.8-2.1-.62-4.07-1.15-5.96-1.5,2.01,1.74,4.23,2.89,6.43,3.43,2.13.53,4.11.47,5.83.02,1.26.88,2.59,1.66,3.98,2.31-2.23-.22-4.37-.48-6.46-.72-2.31-.27-4.46-.48-6.47-.52,2.39,1.45,4.93,2.24,7.35,2.41,2.28.16,4.32-.23,6.02-.96,1.44.64,2.94,1.17,4.49,1.56-2.31.18-4.5.3-6.62.42-2.51.15-4.8.3-6.91.6,2.79,1.06,5.65,1.42,8.26,1.15,2.39-.24,4.45-.97,6.08-1.98,1.55.34,3.14.56,4.76.64v.12c-2.25.56-4.37,1.04-6.42,1.51-2.68.62-5.09,1.19-7.27,1.87,3.19.58,6.37.4,9.16-.36,1.74-.48,3.27-1.16,4.57-1.97.09.25.33.42.61.42h.36c-1.02,1.09-2.37,2.07-4.14,2.91h2.51v2.46c1.54-1.71,2.75-3.45,3.34-5.23.58,1.78,1.8,3.51,3.34,5.23v-2.46s2.5,0,2.5,0c-1.77-.84-3.12-1.82-4.14-2.91h.36c.28,0,.51-.17.61-.42,1.29.81,2.82,1.49,4.57,1.97,2.79.76,5.97.94,9.16.36-2.18-.68-4.59-1.26-7.27-1.87-2.05-.47-4.18-.95-6.42-1.51v-.12c1.62-.08,3.22-.3,4.77-.64,1.64,1.01,3.69,1.74,6.08,1.98,2.61.27,5.48-.09,8.26-1.15-2.11-.3-4.4-.46-6.91-.6-2.13-.12-4.32-.24-6.62-.42,1.55-.39,3.05-.91,4.49-1.56,1.7.73,3.74,1.12,6.02.96,2.41-.17,4.96-.96,7.35-2.41-2.01.04-4.16.26-6.47.52-2.09.24-4.22.51-6.46.72,1.39-.65,2.72-1.43,3.98-2.31,1.72.45,3.7.51,5.83-.02,2.19-.54,4.42-1.69,6.43-3.43-1.89.35-3.86.88-5.96,1.5-1.99.58-3.99,1.21-6.08,1.8,1.22-.88,2.36-1.86,3.42-2.94,1.68.17,3.55-.08,5.48-.92,1.96-.85,3.87-2.28,5.52-4.23-1.74.61-3.52,1.41-5.4,2.32-1.81.87-3.62,1.8-5.48,2.72,1.01-1.05,1.94-2.18,2.78-3.41,1.61-.1,3.32-.62,5.02-1.71,1.73-1.1,3.33-2.74,4.63-4.83-1.57.83-3.16,1.85-4.81,2.99-1.58,1.1-3.15,2.25-4.74,3.41.78-1.15,1.48-2.38,2.1-3.69,1.5-.34,3.03-1.09,4.48-2.35ZM51.38,63.79l-1.26,1.31-1.26-1.31c-.38-.4-.73-.83-1.04-1.29h4.61c-.31.46-.66.89-1.04,1.29Z"/>
    <path class="st0" d="M67.99,15.55c-.01-.98-.25-2.03-.79-3.11-.54-1.08-1.35-2.12-2.43-3.06.33.99.79,2.01,1.35,3.06.56,1.05,1.2,2.08,1.87,3.11Z"/>
    <path class="st0" d="M65.67,13.97c-.12-.92-.46-1.88-1.09-2.84-.63-.96-1.52-1.86-2.66-2.65.42.9.97,1.81,1.62,2.74.65.93,1.37,1.84,2.13,2.74Z"/>
    <path class="st0" d="M63.25,12.67c-.22-.84-.65-1.71-1.35-2.55-.71-.84-1.65-1.61-2.83-2.25.49.81,1.11,1.61,1.84,2.43.73.82,1.52,1.6,2.34,2.38Z"/>
    <path class="st0" d="M50.5,34.3s0,0,.01,0c.89.56.64,2.14.46,2.59,0,0,0,.02.02,0,1.12-1.32.57-2.78.34-3.15,0,0,0-.02.01,0,1,.81.95,1.89.9,2.49,0,0,.01.01.02,0,.41-.8.53-2.15-.71-3.24,0,0,0-.02,0-.02,1.11.27,1.56,1.32,1.57,2.11,0,.01,0,.03,0,.04,0,0,.01.01.02,0,.16-.59.12-1.07-.02-1.45-.32-.87-1.19-1.24-1.62-1.3,0,0,0-.02,0-.02.83-.08,1.33.18,1.61.43.18.16.27.31.31.38,0,0,.02,0,.02,0-.03-.32-.15-.58-.33-.79-.49-.58-1.41-.75-2.01-.5,0,0-.01,0,0-.01.38-.55,1.16-.61,1.56-.42,0,0,.02,0,0-.01-.61-.7-1.61-.72-2.15.1,0,0-.01,0-.01,0-.06-.1-.11-.22-.17-.34-.12-.26-.17-.56-.22-.86,0-.01-.02-.01-.02,0-.05.3-.1.59-.21.86-.05.12-.11.24-.17.34,0,0-.01,0-.01,0-.54-.81-1.54-.8-2.15-.1,0,0,0,.02.01.01.41-.19,1.18-.14,1.56.42,0,0,0,.02,0,.01-.6-.25-1.52-.09-2.01.5-.18.21-.3.47-.33.79,0,0,.01.01.02,0,.04-.07.13-.23.31-.38.29-.25.79-.51,1.61-.43,0,0,.01.02,0,.02-.42.05-1.29.43-1.62,1.3-.14.38-.18.86-.02,1.45,0,0,.02,0,.02,0,0-.01,0-.03,0-.04,0-.79.46-1.84,1.57-2.11,0,0,.01,0,0,.02-1.24,1.09-1.12,2.44-.71,3.24,0,0,.02,0,.02,0-.05-.6-.1-1.68.9-2.49,0,0,.02,0,.01,0-.23.37-.77,1.83.34,3.15,0,0,.02,0,.02,0-.19-.45-.44-2.03.46-2.59,0,0,.01,0,.01,0,.09,1.04.19,3.03-.09,6.12-1.45-.84-3.97-2.14-5.8-2.14-.56,0-1.03.15-1,.15,2.42.38,5.28,2.06,6.49,2.83-.78.49-3.27,2.03-3.57,2.03-.15,0-.17-.18-.3-.18-.12,0-.12.08-.12.12,0,.52.71.85,1.28.59l3.49-2.02,3.49,2.02c.57.27,1.28-.07,1.28-.59,0-.04,0-.12-.12-.12-.13,0-.15.18-.3.18-.3,0-2.79-1.54-3.57-2.03,1.21-.76,4.07-2.45,6.49-2.83.03,0-.44-.15-1-.15-1.83,0-4.36,1.3-5.8,2.14-.28-3.09-.17-5.08-.09-6.12Z"/>
    <path class="st0" d="M70.47,33.64c4.21.23,5.3-1.96,5.19-2.29-.06.04-.15.08-.21.11-2.35-9.66-10.11-17.24-19.88-19.32-.06.11-.11.21-.15.31,9.69,2.03,17.39,9.54,19.72,19.12-.82.25-1.83.42-2.96.42-.51-1.98-1.27-3.85-2.26-5.58-.07.1-.14.19-.22.29.93,1.65,1.65,3.42,2.13,5.29-.58,0-1.19-.04-1.8-.07-.37-.02-.73-.05-1.09-.07-.08,0-.16,0-.24-.02-.33-1.06-.75-2.09-1.26-3.06-.22.14-.26.16-.28.18.47.92.87,1.87,1.18,2.87-.86-.06-1.67-.1-2.4-.09-.27,0-.53.01-.78.03-.19-.49-.41-.96-.64-1.43l-.29.15c.22.42.41.86.59,1.3-1.11.1-2.03.37-2.86.86-.12-.28-.24-.55-.38-.82l-.29.15c.14.28.27.56.39.84-1.12.75-1.71,1.58-2.3,2.72h0c-.1-.35-.23-.7-.38-1.04-.06-.13-.12-.26-.18-.38,0,0,0,0,0-.01,0,0,0-.02-.01-.02-.18-.34-.38-.67-.6-.99l8.31-4.24c1.63-.83,2.91-2.09,3.77-3.56-.31-.03-.62-.05-.93-.05-.04,0-.09,0-.13,0-1.39-2.14-3.14-4.03-5.15-5.6l-.2.26c1.93,1.5,3.61,3.31,4.97,5.35-1.05.06-2.1.3-3.11.74-1.05-1.41-2.29-2.66-3.67-3.74l-.2.26c1.34,1.04,2.54,2.26,3.57,3.62-.07.04-.15.07-.22.11l-2.48,1.26c-.79-.98-1.69-1.87-2.69-2.64l-.2.26c.96.74,1.83,1.59,2.59,2.53l-2.72,1.39c-.33-.37-.68-.72-1.06-1.05l-.2.26c.34.3.65.61.95.94l-3.38,1.72s0,0,0,0l2.87-3.69-.14-1.17,6.14-7.91.35-.45-.78-.63-1.41,1.81c-.07-.05-.14-.1-.21-.14-3.42-2.3-7.49-3.69-11.87-3.84l.12.34c4.26.17,8.21,1.53,11.54,3.76.07.05.14.1.22.15l-1.83,2.35c-.09-.06-.19-.13-.28-.19-2.61-1.7-5.66-2.78-8.94-3.06,0,.11.01.22.01.33,3.19.27,6.16,1.33,8.71,2.98.1.06.19.13.29.19l-1.35,1.74h0c-.7-.56-.44-.35-1.08-.86-.12-.09-.23-.16-.35-.19-.33-.08-.61.16-.71.71-1.68-.83-3.52-1.38-5.46-1.58v.33c1.93.2,3.75.76,5.41,1.59l-.28,1.84-.79.96c-.1-.05-.2-.11-.3-.16-.97-.49-2.02-.85-3.11-1.08.08.11.14.24.17.37.95.22,1.87.54,2.73.97.1.05.2.1.3.16l-.82,1-.57.02-1.58,1.92c-.1-.03-.2-.06-.31-.08v-3.81c0-.24-.13-.45-.35-.56,0,0-.77-.44-.77-.44v-5.9c0-.98-.18-1.95-.53-2.86l-.88-2.46-.88,2.46c-.35.91-.53,1.88-.53,2.86v5.9s-.11.06-.77.44c-.21.11-.35.32-.35.56v3.81c-.1.02-.2.05-.31.08h0s-1.58-1.92-1.58-1.92l-.57-.02-.82-1c.1-.05.2-.1.3-.15.86-.42,1.77-.75,2.72-.97.03-.14.08-.27.17-.37-1.09.23-2.14.59-3.11,1.08-.1.05-.2.1-.3.16l-.79-.96-.27-1.83c1.66-.83,3.48-1.39,5.41-1.59v-.33c-1.94.2-3.78.75-5.46,1.58,0-.02,0-.05-.01-.07-.12-.5-.38-.71-.7-.63-.12.03-.23.11-.35.19-.64.51-.39.31-1.08.87h0s-1.35-1.75-1.35-1.75c.1-.07.19-.13.29-.19,2.55-1.65,5.52-2.71,8.71-2.98,0-.11,0-.22.01-.33-3.27.27-6.32,1.36-8.94,3.06-.09.06-.19.13-.28.19l-1.83-2.35c.07-.05.14-.1.22-.15,3.33-2.23,7.28-3.59,11.54-3.76l.12-.34c-4.38.15-8.46,1.54-11.87,3.84-.07.05-.14.09-.21.14l-1.41-1.81-.79.62s6.48,8.35,6.49,8.38l-.14,1.17,2.87,3.69c-.25.17-.49.35-.7.53l-3.21-1.63c.44-.55.92-1.05,1.44-1.52l-.2-.26c-.56.5-1.08,1.04-1.54,1.63l-2.69-1.37c.86-1.17,1.87-2.22,3.01-3.11l-.2-.26c-1.18.92-2.23,2.01-3.11,3.22l-.56-.28.07-.13c.09-.18.03-.41-.15-.51l-1.69-.94c1.03-1.39,2.25-2.64,3.61-3.71l-.2-.26c-1.4,1.09-2.64,2.38-3.7,3.81l-2.61-1.46c1.26-1.77,2.78-3.36,4.49-4.7l-.2-.26c-1.75,1.37-3.29,2.98-4.58,4.8l-1.79-1c-.51,1-.95,1.86-1.46,2.86.61.31-.34-.14,6.93,3.21.19.09.41,0,.5-.17l.07-.14,6.62,3.35c-.7.86-1.24,1.85-1.55,2.92-.59-1.14-1.18-1.97-2.3-2.72.19-.47.42-.92.66-1.35l-.3-.15c-.24.43-.46.87-.65,1.32-.83-.49-1.75-.76-2.86-.86.25-.62.54-1.23.86-1.81l-.29-.15c-.35.62-.65,1.27-.91,1.93-.25-.02-.51-.02-.78-.03-.73,0-1.54.04-2.4.09.31-.97.69-1.91,1.15-2.8l-.3-.14c-.48.95-.88,1.94-1.2,2.96-.43.03-.88.06-1.33.08-.61.04-1.22.06-1.8.07.4-1.52.95-2.98,1.64-4.36l-.3-.14c-.71,1.42-1.28,2.93-1.68,4.5h-.39c-.74,0-1.89-.22-2.57-.42,2.32-9.58,10.02-17.09,19.72-19.12-.04-.09-.09-.2-.15-.31-9.77,2.08-17.52,9.65-19.88,19.32-.06-.03-.16-.07-.21-.11-.12.33.98,2.52,5.19,2.29,3.1-.17,4.7-.28,5.74-.18.71.06,1.31.29,1.82.64-1-.51-2.14-.21-3.78,0-2.22.27-4.29.57-5.07.27-.1.23.9,1.48,4.15,1.25,2.79-.2,5-.73,6.17,0-.95-.34-1.89.07-5.01.6-.58.1-1.74.18-2.01.11,0,0,0,0,0,0-.04.21.76.99,3.22.83,2.07-.14,4.77-.44,5.52.18-1.18-.35-5.17.57-5.94.45,0,0,0,0,0,.01h0c.16.23,1.16.69,2.84.65.76-.02,1.99,0,3.1.36l-2.66,1.36c-.09-.42-.15-.85-.19-1.28-.14,0-.2,0-.33,0,.05.49.12.97.22,1.43l-.61.31-2.29.35c-.23-1.09-.36-2.21-.36-3.37-.11,0-.27,0-.33,0,0,1.18.12,2.32.36,3.42l-2.95.45c-.25-1.24-.39-2.52-.39-3.83,0-.54.02-1.06.06-1.59-.16-.02-.33-.04-.33-.04-.04.54-.07,1.08-.07,1.63,0,1.33.13,2.63.39,3.88l-.29.04c-.88.18-1.75.43-2.59.73-.32-1.5-.49-3.06-.49-4.65,0-1.23.1-2.43.29-3.6l-.33-.05c-.19,1.19-.29,2.41-.29,3.66,0,1.64.17,3.23.5,4.77-1.12.42-1.82.8-2.53,1.16,1.11,2.18.86,1.69,1.21,2.37l-.67.33c-.96-2.7-1.49-5.61-1.49-8.63,0-1.71.17-3.38.49-5-.11-.13-.2-.25-.26-.37h0c-.36,1.73-.56,3.53-.56,5.37,0,3.08.54,6.04,1.52,8.78.33.92.71,1.82,1.14,2.7l1.15-.58,1.21,2.37.6-.3c1.53-.78,2.95-1.76,4.22-2.92l4.44-4.48,3.24-1.65s0,0,0,0c.19.33.4.66.63.96l-2.33,2.82.21-.26c-.41-.55-.79-1.14-1.1-1.76l-.3.15c.34.66.74,1.29,1.18,1.87l-1.35,1.63.04.69-.31.38c-.67-.76-1.27-1.58-1.79-2.46l-.24.24c.53.88,1.14,1.71,1.82,2.48l-4.02,4.89c-.95-.98-1.81-2.04-2.56-3.18-.09.06-.19.11-.28.17h0c.78,1.17,1.66,2.26,2.63,3.26l-1.9,2.31c-1.89-1.89-3.46-4.05-4.7-6.45l-.3.14c1.24,2.42,2.85,4.62,4.75,6.53.02.02.04.05.06.07-.02.13.03.26.15.34l5.47,2.71c.06.04.12.05.18.05.13,0,.26-.08.32-.21,0-.02.07-.25.07-.26,1.36-5.35,4.77-10.32,4.77-10.32.07-.11.2-.17.33-.17.18,0,.34.12.39.29,0,0,.93,2.83.93,2.83,0,0,0,.01,0,.02.13.48.52.56.93.27.03-.02,1.51-1.05,1.53-1.08.19-.19.14-.03-1.47-5.39.43.23.89.43,1.36.59.8.28,1.64.46,2.51.53v7.9c0,.64-.17,1.14-.51,1.49-1.07,1.1-3.66.37-4.55-1.56l.85-.16c-.95-.59-1.88-1.83-2.02-3.11-.15.23-.29.46-.4.69-.05.1-.09.2-.13.3-.45,1.12-.4,2.26.17,3.44l.39-.54c1.06,3.09,5.52,2.94,7.12,5.16h0c1.61-2.22,6.07-2.07,7.13-5.16l.39.54c.73-1.52.61-2.98-.37-4.43-.04.36-.14.71-.28,1.04-.07.16-.15.32-.24.48-.39.67-.94,1.25-1.5,1.59l.85.16c-.61,1.32-2,2.07-3.17,2.07-.51,0-1.03-.15-1.38-.52-.34-.35-.51-.85-.51-1.49v-7.9c.87-.07,1.71-.26,2.51-.53.47-.16.93-.36,1.36-.59l-1.54,5.13h0c-.04.09,0,.24.12.31h0s1.48,1.03,1.48,1.03c.16.11.31.17.45.17.12,0,.22-.04.31-.13.16-.16,1.1-3.17,1.1-3.17.05-.17.2-.29.39-.29.14,0,.26.07.33.17,0,0,3.41,4.97,4.77,10.32,0,0,.05.18.05.18,0,.03.01.05.02.08.08.19.32.27.5.16l5.47-2.71c.12-.08.17-.21.16-.34,1.84-1.84,3.41-3.95,4.65-6.27,1.93-3.63,3.02-7.78,3.02-12.17,0-1.84-.19-3.64-.56-5.37-.06.12-.18.28-.26.37.32,1.62.49,3.29.49,5,0,4.34-1.08,8.43-2.99,12.02h0c-1.21,2.28-2.72,4.32-4.53,6.13l-1.9-2.31c.97-.99,1.84-2.08,2.62-3.23l-.2-.29c-.77,1.17-1.65,2.27-2.63,3.27l-1.9-2.32c.84-.9,1.6-1.87,2.26-2.91l-.29-.16c-.64,1.01-1.37,1.95-2.18,2.82l-1.91-2.32c.68-.77,1.29-1.59,1.81-2.48l-.21-.29c-.52.9-1.13,1.74-1.81,2.52l-.32-.39.04-.69-1.35-1.63c.56-.74,1.04-1.54,1.43-2.4l-.3-.15c-.37.81-.83,1.57-1.36,2.28l-2.12-2.57c.17-.22.33-.45.47-.69h0c.16-.27.31-.54.44-.82h0s3.18,1.62,3.18,1.62c-.02-.04,2.84,3.98,2.84,3.98l3.24,1.83.94,1.35,2.18,1.11.65-1.28,2.66-5.22.28-.54-2.18-1.11h-.43c.38-1.64.58-3.36.58-5.12,0-1.24-.1-2.47-.29-3.66l-.33.05c.19,1.17.29,2.38.29,3.6,0,1.77-.21,3.49-.59,5.14l-.87.02-1.98-.9c.31-1.37.47-2.79.47-4.25,0-.55-.02-1.09-.07-1.63h0c-.11.01-.21.03-.33.04.04.52.06,1.05.06,1.59,0,1.41-.15,2.79-.45,4.11l-1.1-.5-1.84.02c.27-1.18.41-2.41.41-3.67-.06,0-.21,0-.33,0,0,1.26-.14,2.49-.42,3.66l-2.63.03-.4-.2c.2-.71.34-1.45.41-2.21-.14,0-.19,0-.33,0-.07.7-.2,1.39-.38,2.06l-2.73-1.4c.06-.23.1-.46.13-.69,1-.34,2.16-.42,3.23-.39,1.68.04,2.68-.42,2.84-.65h0s0,0,0-.01c-.77.11-4.76-.8-5.94-.45,1.15-.57,2.46-.39,5.52-.18,2.46.16,3.26-.62,3.22-.83,0,0,0,0,0,0-.27.06-1.43-.02-2.01-.11-3.12-.53-4.06-.94-5.01-.6,1.17-.72,3.38-.19,6.17,0,3.1.22,4.16-.9,4.16-1.22,0-.02,0-.04,0-.04-.78.3-2.85,0-5.07-.27-1.64-.2-2.78-.5-3.78,0,.52-.35,1.11-.57,1.82-.64,1.04-.09,2.63.02,5.74.18ZM50.12,46.13c-4.66,0-8.43-3.78-8.43-8.43s3.78-8.43,8.43-8.43,8.43,3.77,8.43,8.43-3.77,8.43-8.43,8.43Z"/>
    <polygon class="st0" points="62.57 38.87 62.57 38.87 62.57 38.87 62.57 38.87"/>
    <path class="st0" d="M41.92,10.19c.06,0,.12,0,.19,0,.61,0,1.18.16,1.66.44h0c.87.5,1.58,1.55,1.7,2.57,1.52-.59,2.6-.95,4.65-.95s3.13.36,4.65.95c.11-1.02.83-2.06,1.7-2.57h0c.49-.28,1.06-.44,1.67-.44.06,0,.12,0,.19,0,.05-.08.09-.15.14-.23.24-.47.38-1,.38-1.56,0-1.82-1.43-3.29-3.23-3.38.09.27.16.64.14.98-1.4-2.43-3.61-1.65-4.77-2.63.09-.15.14-.33.14-.51h0c0-.45-.29-.83-.7-.95l.42-.42s-.52-.9-.73-1.47h0c-.21.57-.73,1.47-.73,1.47l.42.42h0c-.4.13-.7.51-.7.96,0,.19.05.37.14.52-1.17.98-3.37.2-4.77,2.63-.02-.34.04-.71.14-.98-1.8.08-3.23,1.56-3.23,3.38,0,.56.14,1.1.38,1.56.04.08.09.16.14.23ZM56.27,7.94c0-.3-.04-.6-.1-.87-.06-.27-.14-.52-.23-.71.92.22,1.61,1.05,1.61,2.04,0,.4-.08.78-.3,1.08-.04.06-.09.11-.13.16h0s0,0,0,0h0s0,0,0,0h0c-.75.84-1.86.67-2.18.59-.06-.02-.08-.02-.09-.02.21.05,1.42-.82,1.42-2.26ZM50.9,4.94c1.01.49,3.85.17,3.85,3,0,.77-.36,1.51-1,1.98-.59-.13-1-.23-1.43-.31-.43-.08-.89-.12-1.56-.14.19-.39.33-.81.42-1.26.08-.38.12-.77.12-1.17,0-.71-.13-1.42-.41-2.11ZM49.34,4.94c-.28.69-.41,1.39-.41,2.11,0,.4.05.79.12,1.17.09.44.23.86.42,1.26-.67.02-1.12.07-1.56.14-.43.08-.85.18-1.43.31-.63-.47-1-1.21-1-1.98,0-2.83,2.84-2.51,3.85-3ZM44.3,6.35c-.09.19-.17.44-.23.71-.06.27-.1.57-.1.87,0,1.44,1.21,2.31,1.42,2.26,0,0-.03,0-.09.02-.32.07-1.43.25-2.18-.59h0s0,0,0,0c-.04-.05-.09-.1-.13-.16-.22-.3-.3-.68-.3-1.08,0-.99.69-1.82,1.61-2.04Z"/>
    <path class="st0" d="M36.13,50.64c-.76-.81-1.45-1.69-2.06-2.63,0,0-.21.19-.25.23.62.95,1.32,1.84,2.1,2.66l.21-.26Z"/>
  </g>
  <g>
    <path class="st0" d="M62.73,87.74l.05.9h1.18c-.11-4.83-.19-7.04-.4-11.64v-.06h-1.51v.07c.35,4.47.49,7.1.68,10.72Z"/>
    <polygon class="st0" points="41.39 78.06 40.24 76.95 39.01 78.22 40.26 79.36 41.39 78.06"/>
    <path class="st0" d="M74.42,88.87c1.08,0,2.12-.27,2.88-.77l.45-1.05c0-.86-1.43-3.88-2.6-5.69-.29.14-.8.52-1.11.77-1.65,1.32-2.8,3.08-2.8,4.28,0,1.36,1.42,2.46,3.18,2.46ZM74.71,83.13c.78,1.23,1.31,2.34,1.83,3.83-.62.38-1.44.52-2.01.52-.93,0-1.77-.41-2.25-1.02.43-1.3,1.32-2.51,2.43-3.32Z"/>
    <path class="st0" d="M40.29,80.12c-1.94,0-3.18,2.83-3.18,4.31,0,1.21,1.34,2.06,4.37,2.77H10.77c-.04-3.51-.13-5.41-.29-8.84l-.07-1.42h-1.51v.07c.44,4.8.6,7.88.74,11.57v.06h33.3v-.05c.07-.32.27-2.4.27-2.92,0-3.48-1.09-5.55-2.91-5.55ZM42.07,86.04c-1.85-.38-2.75-.76-3.93-1.62.13-1.55,1.06-2.92,1.98-2.92,1.15,0,1.95,1.82,1.95,4.42v.12Z"/>
    <path class="st0" d="M85.54,87.74l.05.9h1.18c-.11-4.82-.19-7.04-.4-11.64v-.06h-1.51v.07c.35,4.47.49,7.1.68,10.72Z"/>
    <path class="st0" d="M59.74,77.01v-.06h-1.51v.07c.32,4.11.46,6.61.66,10.19h-6.77c-.64,0-1.11-.35-1.52-1.14-.6-1.13-.99-2.8-1.21-5.26v-.09s-1.31.57-1.31.57v.05c.36,2.47.96,4.5,1.7,5.73.04.07.09.14.14.21-.76.13-1.49.16-2.35.16-1.02,0-1.92-.1-2.92-.31h-.07s-.24,1.36-.24,1.36h.06c.99.26,2.1.39,3.04.39s1.99-.03,2.92-.22h.04s.16-.63.16-.63c.46.41.95.62,1.45.62h.05s8.09,0,8.09,0v-.07c-.11-4.87-.2-6.94-.4-11.57Z"/>
    <path class="st0" d="M91,81.48l-.03-.07-1.41.8.03.06c.98,1.91,1.57,3.46,1.93,4.99-.54,1.72-1.69,3.08-3.01,3.56-.59.26-1.52.44-2.48.46h-.06s-.03.61-.03.61l3.28.44c2.02-1.54,3.18-3.54,3.18-5.49,0-1.22-.43-2.87-1.4-5.35Z"/>
    <path class="st0" d="M100.24,86.48c0-3.22-1.14-5.31-2.91-5.31s-3.2,2.57-3.2,4.24c0,1.43,1.56,2.38,4.77,2.89-.51,1.16-1.43,2.11-2.46,2.55-.57.25-1.45.39-2.62.42h-.06s-.06.61-.06.61l3.29.44c2.09-1.55,3.25-3.63,3.25-5.85ZM95.16,85.4c.18-1.52,1.11-2.85,2-2.85,1.11,0,1.88,1.66,2.06,4.45-2.06-.3-3.32-.81-4.06-1.6Z"/>
    <path class="st0" d="M81.34,81.41l-1.41.8.03.06c.98,1.91,1.57,3.46,1.93,4.99-.54,1.72-1.69,3.08-3.01,3.56-.59.26-1.52.44-2.48.46h-.06s-.03.61-.03.61l3.28.44c2.02-1.54,3.18-3.54,3.18-5.49,0-1.22-.43-2.87-1.4-5.35l-.03-.07Z"/>
    <polygon class="st0" points="91.05 79.12 89.9 78.01 88.67 79.28 89.93 80.42 91.05 79.12"/>
    <polygon class="st0" points="73.98 79.12 72.82 78.01 71.59 79.28 72.85 80.42 73.98 79.12"/>
    <polygon class="st0" points="76.62 79.14 75.46 78.01 74.23 79.28 75.49 80.42 76.62 79.14"/>
    <path class="st0" d="M7.75,90.25c-1.7.44-2.36.6-3.09.6-1.32,0-2.4-.32-3.11-.92-.12-.1-.22-.22-.29-.35-.26-.46-.16-1.09.24-1.53.04-.04.08-.09.1-.11,1.35-.4,2.98-.69,4.58-.82h.05s.32-1.47.32-1.47h-.09c-1.09.14-2.09.31-2.96.52-1.35-.25-2.34-1.35-2.49-2.7.53-1.01,1.64-1.72,2.7-1.72.54,0,1.04.13,1.97.51l.05.02.3-.55-.05-.03c-.35-.22-.61-.42-.87-.61-.34-.26-.66-.5-1.16-.77C2.04,80.3,0,81.77,0,83.96c0,1.08.65,2.21,1.64,2.84-.1.05-.41.24-.41.24-.2.13-.39.34-.55.65-.6,1.1-.53,2.4.17,3.31.42.55,1,.93,1.67,1.1.63.16,1.34.24,2.11.24h.03c.6-.27,1.11-.5,1.61-.73.55-.25,1.08-.5,1.7-.76l.06-.03-.22-.58h-.06Z"/>
    <polygon class="st0" points="3.56 98.27 1.24 95 0 95 .42 95.59 .42 101.65 1.26 101.65 1.26 96.76 3.39 99.75 5.62 96.77 5.62 101.65 6.63 101.65 6.63 95 6.06 95 3.56 98.27"/>
    <polygon class="st0" points="40.49 97.89 38.98 95.05 38.95 95 37.83 95 39.86 98.84 39.86 101.65 40.87 101.65 40.87 98.92 43.04 95 42.09 95 40.49 97.89"/>
    <path class="st0" d="M35.92,98.42c.16-.1.3-.23.44-.39.13-.15.25-.34.34-.54s.14-.44.14-.71c0-.32-.06-.6-.18-.83-.12-.23-.29-.43-.5-.59s-.46-.27-.75-.35c-.28-.08-.6-.12-.94-.12-.42,0-.76.02-1.03.06-.24.04-.49.08-.73.13l-.08.02v6.54h1.01v-2.7h.97s1.93,2.7,1.93,2.7h1.26l-2.28-3c.12-.05.26-.12.41-.23ZM34.94,98.22h-1.31v-2.57h.57c.55,0,.97.1,1.23.29.26.19.4.51.4.93,0,.18-.03.34-.09.48-.06.14-.13.27-.22.39-.09.11-.18.21-.28.29-.08.06-.17.13-.3.19Z"/>
    <rect class="st0" x="8.73" y="95" width="1.01" height="6.65"/>
    <rect class="st0" x="19.12" y="95" width="1.01" height="6.65"/>
    <polygon class="st0" points="16.16 99.56 12.51 95 11.25 95 11.92 95.84 11.92 101.65 12.77 101.65 12.77 96.9 16.55 101.65 17.01 101.65 17.01 95 16.16 95 16.16 99.56"/>
    <polygon class="st0" points="26.56 95.82 28.53 95.82 28.53 101.65 29.54 101.65 29.54 95.82 31.34 95.82 31.66 95 26.56 95 26.56 95.82"/>
    <path class="st0" d="M25.35,98.85h0c-.12-.13-.25-.26-.38-.36-.14-.1-.27-.19-.39-.27l-.61-.38c-.13-.08-.26-.15-.37-.23-.12-.07-.22-.16-.31-.25-.09-.09-.17-.19-.22-.29-.05-.1-.08-.22-.08-.36,0-.16.03-.31.1-.44.07-.13.16-.23.28-.31.11-.08.25-.14.4-.18.15-.04.3-.06.47-.06.31,0,.58.06.82.19.17.09.32.19.45.31l.17.14v-1.05l-.05-.03c-.06-.03-.12-.07-.2-.11-.11-.05-.22-.09-.35-.13-.13-.04-.26-.07-.41-.1-.48-.09-.94-.03-1.33.09-.27.09-.51.22-.71.39-.2.17-.35.38-.46.61-.11.24-.16.5-.16.79,0,.32.1.63.29.91.19.28.51.56.94.82l.86.52c.1.06.19.13.29.22.09.08.18.18.25.29.07.11.1.24.1.38s-.03.29-.1.4c-.07.12-.15.22-.26.31-.11.09-.24.15-.38.2-.14.05-.29.07-.44.07-.36,0-.67-.06-.94-.18-.2-.09-.4-.2-.58-.33l-.18-.13.15,1.15.06.02c.22.08.45.15.7.2.27.06.56.09.86.09s.59-.05.85-.13c.26-.09.49-.22.68-.38.19-.16.34-.37.45-.6.11-.23.16-.5.16-.78,0-.21-.04-.4-.11-.57-.08-.17-.17-.33-.29-.46Z"/>
    <path class="st0" d="M94.3,98.85c-.12-.13-.25-.25-.38-.36-.13-.1-.27-.19-.39-.27l-.61-.38c-.13-.08-.25-.15-.37-.23-.11-.07-.22-.16-.31-.25-.09-.09-.17-.19-.22-.29-.05-.1-.08-.22-.08-.36,0-.16.03-.31.1-.44.07-.13.16-.23.28-.31.12-.08.25-.14.4-.19.15-.04.3-.06.47-.06.31,0,.58.06.82.19.17.09.32.19.45.31l.17.14v-1.05l-.05-.03c-.06-.03-.12-.07-.2-.11-.1-.05-.22-.09-.35-.13-.13-.04-.26-.08-.41-.1-.49-.09-.94-.03-1.33.09-.27.09-.51.22-.7.39-.2.17-.35.38-.46.61-.11.24-.16.51-.16.79,0,.32.1.63.29.91.19.28.51.55.94.82l.86.52c.1.06.2.13.29.22.1.09.18.18.25.29.07.11.1.24.1.38s-.03.29-.1.4c-.07.12-.15.22-.26.31-.11.09-.23.15-.38.2-.14.05-.29.07-.44.07-.36,0-.67-.06-.94-.18-.2-.09-.4-.2-.58-.33l-.18-.13.15,1.15.06.02c.22.08.46.15.7.2.27.06.56.09.86.09s.59-.05.85-.13c.26-.09.49-.22.68-.38.19-.17.34-.37.45-.6.11-.23.16-.5.16-.78,0-.21-.04-.4-.11-.57-.08-.17-.17-.33-.29-.46Z"/>
    <polygon class="st0" points="79.5 98.66 81.37 98.66 81.67 97.88 79.5 97.88 79.5 95.78 81.8 95.78 82.12 95 78.49 95 78.49 101.65 81.88 101.65 82.3 100.84 79.5 100.84 79.5 98.66"/>
    <polygon class="st0" points="73.52 101.65 74.53 101.65 74.53 98.81 76.45 98.81 76.76 98.03 74.53 98.03 74.53 95.78 76.89 95.78 77.21 95 73.52 95 73.52 101.65"/>
    <path class="st0" d="M51.46,95.85c-.29-.31-.64-.55-1.04-.71s-.84-.25-1.31-.25-.92.09-1.32.25c-.4.17-.75.41-1.04.71-.29.31-.52.67-.68,1.09-.16.42-.24.89-.24,1.39s.08.98.24,1.4c.16.42.39.78.68,1.09.29.3.64.54,1.04.71.4.17.84.25,1.32.25s.92-.09,1.31-.25c.4-.17.75-.41,1.04-.72.29-.3.52-.67.68-1.09.16-.42.24-.89.24-1.39s-.08-.97-.24-1.39c-.16-.42-.39-.79-.68-1.09ZM51.16,99.39c-.1.32-.24.6-.43.82-.18.23-.42.41-.69.54-.27.13-.59.2-.94.2s-.67-.07-.94-.2c-.27-.13-.51-.31-.7-.54-.19-.23-.33-.5-.43-.82-.1-.32-.14-.67-.14-1.06s.05-.73.15-1.05c.1-.32.24-.6.43-.83.19-.23.42-.41.69-.54.27-.13.59-.2.94-.2s.66.07.94.2c.27.13.51.31.69.54.19.23.33.51.43.83.1.32.15.68.15,1.05s-.05.74-.15,1.06Z"/>
    <polygon class="st0" points="97.44 98.66 99.31 98.66 99.61 97.88 97.44 97.88 97.44 95.78 99.74 95.78 100.06 95 96.43 95 96.43 101.65 99.82 101.65 100.24 100.84 97.44 100.84 97.44 98.66"/>
    <polygon class="st0" points="88.21 99.56 84.56 95 83.3 95 83.97 95.84 83.97 101.65 84.81 101.65 84.81 96.9 88.59 101.65 89.06 101.65 89.06 95 88.21 95 88.21 99.56"/>
    <polygon class="st0" points="69.14 98.66 71.01 98.66 71.32 97.88 69.14 97.88 69.14 95.78 71.44 95.78 71.76 95 68.13 95 68.13 101.65 71.53 101.65 71.95 100.84 69.14 100.84 69.14 98.66"/>
    <polygon class="st0" points="53.86 101.65 54.87 101.65 54.87 98.81 56.79 98.81 57.1 98.03 54.87 98.03 54.87 95.78 57.23 95.78 57.55 95 53.86 95 53.86 101.65"/>
    <path class="st0" d="M65.74,95.83c-.29-.3-.65-.53-1.08-.69-.42-.16-.91-.24-1.43-.24-.42,0-.8.02-1.12.06-.28.04-.55.08-.8.13l-.08.02v6.41l.07.02c.23.06.5.12.81.17.34.06.71.08,1.11.08.52,0,.99-.08,1.41-.25.42-.16.79-.4,1.08-.7.3-.3.53-.67.69-1.08.16-.41.24-.88.24-1.39s-.08-1.01-.23-1.43c-.15-.42-.38-.79-.67-1.09ZM65.42,99.34c-.11.32-.26.6-.46.84-.2.25-.44.44-.73.59-.43.22-.99.28-1.56.17-.18-.03-.33-.06-.43-.09v-5.21h.74c.42,0,.79.07,1.11.2.32.13.59.32.81.56.22.23.39.52.5.86.12.33.17.7.17,1.1,0,.34-.05.67-.16.98Z"/>
  </g>
</svg>